<mxfile host="app.diagrams.net" modified="2023-11-13T11:16:50.897Z" agent="Mozilla/5.0 (Windows NT 10.0; Win64; x64) AppleWebKit/537.36 (KHTML, like Gecko) Chrome/118.0.0.0 Safari/537.36" etag="0RIal5dD88lM8EN0mQEb" version="22.1.0" type="github">
  <diagram name="Page-1" id="a-9BowiqkzIeQxhklBQo">
    <mxGraphModel dx="2901" dy="1118" grid="1" gridSize="10" guides="1" tooltips="1" connect="1" arrows="1" fold="1" page="1" pageScale="1" pageWidth="827" pageHeight="1169" math="0" shadow="0">
      <root>
        <mxCell id="0" />
        <mxCell id="1" parent="0" />
        <mxCell id="lY8gxCx2SG573fm_s0-x-286" value="" style="rounded=0;whiteSpace=wrap;html=1;fillColor=#4b5320;" parent="1" vertex="1">
          <mxGeometry x="69.5" y="80" width="481" height="880" as="geometry" />
        </mxCell>
        <mxCell id="lY8gxCx2SG573fm_s0-x-6" value="" style="rounded=0;whiteSpace=wrap;html=1;fillColor=#8C4700;" parent="1" vertex="1">
          <mxGeometry x="120" y="150" width="380" height="770" as="geometry" />
        </mxCell>
        <mxCell id="lY8gxCx2SG573fm_s0-x-90" value="" style="group;fillColor=#7D3E00;" parent="1" vertex="1" connectable="0">
          <mxGeometry x="130" y="240" width="290" height="270" as="geometry" />
        </mxCell>
        <mxCell id="lY8gxCx2SG573fm_s0-x-47" value="" style="group" parent="lY8gxCx2SG573fm_s0-x-90" vertex="1" connectable="0">
          <mxGeometry width="290" height="60" as="geometry" />
        </mxCell>
        <mxCell id="lY8gxCx2SG573fm_s0-x-7" value="" style="rounded=0;whiteSpace=wrap;html=1;fillColor=#693400;" parent="lY8gxCx2SG573fm_s0-x-47" vertex="1">
          <mxGeometry width="290" height="60" as="geometry" />
        </mxCell>
        <mxCell id="lY8gxCx2SG573fm_s0-x-8" value="" style="ellipse;whiteSpace=wrap;html=1;aspect=fixed;" parent="lY8gxCx2SG573fm_s0-x-47" vertex="1">
          <mxGeometry x="10" y="5" width="50" height="50" as="geometry" />
        </mxCell>
        <mxCell id="lY8gxCx2SG573fm_s0-x-9" value="" style="ellipse;whiteSpace=wrap;html=1;aspect=fixed;" parent="lY8gxCx2SG573fm_s0-x-47" vertex="1">
          <mxGeometry x="83" y="5" width="50" height="50" as="geometry" />
        </mxCell>
        <mxCell id="lY8gxCx2SG573fm_s0-x-10" value="" style="ellipse;whiteSpace=wrap;html=1;aspect=fixed;" parent="lY8gxCx2SG573fm_s0-x-47" vertex="1">
          <mxGeometry x="157" y="5" width="50" height="50" as="geometry" />
        </mxCell>
        <mxCell id="lY8gxCx2SG573fm_s0-x-11" value="" style="ellipse;whiteSpace=wrap;html=1;aspect=fixed;" parent="lY8gxCx2SG573fm_s0-x-47" vertex="1">
          <mxGeometry x="230" y="5" width="50" height="50" as="geometry" />
        </mxCell>
        <mxCell id="lY8gxCx2SG573fm_s0-x-48" value="" style="group" parent="lY8gxCx2SG573fm_s0-x-90" vertex="1" connectable="0">
          <mxGeometry y="70" width="290" height="60" as="geometry" />
        </mxCell>
        <mxCell id="lY8gxCx2SG573fm_s0-x-49" value="" style="rounded=0;whiteSpace=wrap;html=1;fillColor=#693400;" parent="lY8gxCx2SG573fm_s0-x-48" vertex="1">
          <mxGeometry width="290" height="60" as="geometry" />
        </mxCell>
        <mxCell id="lY8gxCx2SG573fm_s0-x-50" value="" style="ellipse;whiteSpace=wrap;html=1;aspect=fixed;" parent="lY8gxCx2SG573fm_s0-x-48" vertex="1">
          <mxGeometry x="10" y="5" width="50" height="50" as="geometry" />
        </mxCell>
        <mxCell id="lY8gxCx2SG573fm_s0-x-51" value="" style="ellipse;whiteSpace=wrap;html=1;aspect=fixed;" parent="lY8gxCx2SG573fm_s0-x-48" vertex="1">
          <mxGeometry x="83" y="5" width="50" height="50" as="geometry" />
        </mxCell>
        <mxCell id="lY8gxCx2SG573fm_s0-x-52" value="" style="ellipse;whiteSpace=wrap;html=1;aspect=fixed;" parent="lY8gxCx2SG573fm_s0-x-48" vertex="1">
          <mxGeometry x="157" y="5" width="50" height="50" as="geometry" />
        </mxCell>
        <mxCell id="lY8gxCx2SG573fm_s0-x-53" value="" style="ellipse;whiteSpace=wrap;html=1;aspect=fixed;" parent="lY8gxCx2SG573fm_s0-x-48" vertex="1">
          <mxGeometry x="230" y="5" width="50" height="50" as="geometry" />
        </mxCell>
        <mxCell id="lY8gxCx2SG573fm_s0-x-60" value="" style="group;fillColor=#693400;" parent="lY8gxCx2SG573fm_s0-x-90" vertex="1" connectable="0">
          <mxGeometry y="210" width="290" height="60" as="geometry" />
        </mxCell>
        <mxCell id="lY8gxCx2SG573fm_s0-x-61" value="" style="rounded=0;whiteSpace=wrap;html=1;fillColor=#693400;" parent="lY8gxCx2SG573fm_s0-x-60" vertex="1">
          <mxGeometry width="290" height="60" as="geometry" />
        </mxCell>
        <mxCell id="lY8gxCx2SG573fm_s0-x-62" value="" style="ellipse;whiteSpace=wrap;html=1;aspect=fixed;" parent="lY8gxCx2SG573fm_s0-x-60" vertex="1">
          <mxGeometry x="10" y="5" width="50" height="50" as="geometry" />
        </mxCell>
        <mxCell id="lY8gxCx2SG573fm_s0-x-63" value="" style="ellipse;whiteSpace=wrap;html=1;aspect=fixed;" parent="lY8gxCx2SG573fm_s0-x-60" vertex="1">
          <mxGeometry x="83" y="5" width="50" height="50" as="geometry" />
        </mxCell>
        <mxCell id="lY8gxCx2SG573fm_s0-x-64" value="" style="ellipse;whiteSpace=wrap;html=1;aspect=fixed;" parent="lY8gxCx2SG573fm_s0-x-60" vertex="1">
          <mxGeometry x="157" y="5" width="50" height="50" as="geometry" />
        </mxCell>
        <mxCell id="lY8gxCx2SG573fm_s0-x-65" value="" style="ellipse;whiteSpace=wrap;html=1;aspect=fixed;" parent="lY8gxCx2SG573fm_s0-x-60" vertex="1">
          <mxGeometry x="230" y="5" width="50" height="50" as="geometry" />
        </mxCell>
        <mxCell id="lY8gxCx2SG573fm_s0-x-54" value="" style="group" parent="lY8gxCx2SG573fm_s0-x-90" vertex="1" connectable="0">
          <mxGeometry y="140" width="290" height="60" as="geometry" />
        </mxCell>
        <mxCell id="lY8gxCx2SG573fm_s0-x-55" value="" style="rounded=0;whiteSpace=wrap;html=1;fillColor=#693400;" parent="lY8gxCx2SG573fm_s0-x-54" vertex="1">
          <mxGeometry width="290" height="60" as="geometry" />
        </mxCell>
        <mxCell id="lY8gxCx2SG573fm_s0-x-56" value="" style="ellipse;whiteSpace=wrap;html=1;aspect=fixed;" parent="lY8gxCx2SG573fm_s0-x-54" vertex="1">
          <mxGeometry x="10" y="5" width="50" height="50" as="geometry" />
        </mxCell>
        <mxCell id="lY8gxCx2SG573fm_s0-x-57" value="" style="ellipse;whiteSpace=wrap;html=1;aspect=fixed;" parent="lY8gxCx2SG573fm_s0-x-54" vertex="1">
          <mxGeometry x="83" y="5" width="50" height="50" as="geometry" />
        </mxCell>
        <mxCell id="lY8gxCx2SG573fm_s0-x-58" value="" style="ellipse;whiteSpace=wrap;html=1;aspect=fixed;" parent="lY8gxCx2SG573fm_s0-x-54" vertex="1">
          <mxGeometry x="157" y="5" width="50" height="50" as="geometry" />
        </mxCell>
        <mxCell id="lY8gxCx2SG573fm_s0-x-59" value="" style="ellipse;whiteSpace=wrap;html=1;aspect=fixed;" parent="lY8gxCx2SG573fm_s0-x-54" vertex="1">
          <mxGeometry x="230" y="5" width="50" height="50" as="geometry" />
        </mxCell>
        <mxCell id="lY8gxCx2SG573fm_s0-x-141" value="" style="group" parent="1" vertex="1" connectable="0">
          <mxGeometry x="130" y="520" width="290" height="270" as="geometry" />
        </mxCell>
        <mxCell id="lY8gxCx2SG573fm_s0-x-116" value="" style="group" parent="lY8gxCx2SG573fm_s0-x-141" vertex="1" connectable="0">
          <mxGeometry width="290" height="270" as="geometry" />
        </mxCell>
        <mxCell id="lY8gxCx2SG573fm_s0-x-129" value="" style="group" parent="lY8gxCx2SG573fm_s0-x-116" vertex="1" connectable="0">
          <mxGeometry y="210" width="290" height="60" as="geometry" />
        </mxCell>
        <mxCell id="lY8gxCx2SG573fm_s0-x-130" value="" style="rounded=0;whiteSpace=wrap;html=1;fillColor=#693400;" parent="lY8gxCx2SG573fm_s0-x-129" vertex="1">
          <mxGeometry width="290" height="60" as="geometry" />
        </mxCell>
        <mxCell id="lY8gxCx2SG573fm_s0-x-131" value="" style="ellipse;whiteSpace=wrap;html=1;aspect=fixed;" parent="lY8gxCx2SG573fm_s0-x-129" vertex="1">
          <mxGeometry x="10" y="5" width="50" height="50" as="geometry" />
        </mxCell>
        <mxCell id="lY8gxCx2SG573fm_s0-x-132" value="" style="ellipse;whiteSpace=wrap;html=1;aspect=fixed;" parent="lY8gxCx2SG573fm_s0-x-129" vertex="1">
          <mxGeometry x="83" y="5" width="50" height="50" as="geometry" />
        </mxCell>
        <mxCell id="lY8gxCx2SG573fm_s0-x-133" value="" style="ellipse;whiteSpace=wrap;html=1;aspect=fixed;" parent="lY8gxCx2SG573fm_s0-x-129" vertex="1">
          <mxGeometry x="157" y="5" width="50" height="50" as="geometry" />
        </mxCell>
        <mxCell id="lY8gxCx2SG573fm_s0-x-134" value="" style="ellipse;whiteSpace=wrap;html=1;aspect=fixed;" parent="lY8gxCx2SG573fm_s0-x-129" vertex="1">
          <mxGeometry x="230" y="5" width="50" height="50" as="geometry" />
        </mxCell>
        <mxCell id="lY8gxCx2SG573fm_s0-x-135" value="" style="group" parent="lY8gxCx2SG573fm_s0-x-116" vertex="1" connectable="0">
          <mxGeometry y="140" width="290" height="60" as="geometry" />
        </mxCell>
        <mxCell id="lY8gxCx2SG573fm_s0-x-136" value="" style="rounded=0;whiteSpace=wrap;html=1;fillColor=#693400;" parent="lY8gxCx2SG573fm_s0-x-135" vertex="1">
          <mxGeometry width="290" height="60" as="geometry" />
        </mxCell>
        <mxCell id="lY8gxCx2SG573fm_s0-x-137" value="" style="ellipse;whiteSpace=wrap;html=1;aspect=fixed;" parent="lY8gxCx2SG573fm_s0-x-135" vertex="1">
          <mxGeometry x="10" y="5" width="50" height="50" as="geometry" />
        </mxCell>
        <mxCell id="lY8gxCx2SG573fm_s0-x-138" value="" style="ellipse;whiteSpace=wrap;html=1;aspect=fixed;" parent="lY8gxCx2SG573fm_s0-x-135" vertex="1">
          <mxGeometry x="83" y="5" width="50" height="50" as="geometry" />
        </mxCell>
        <mxCell id="lY8gxCx2SG573fm_s0-x-139" value="" style="ellipse;whiteSpace=wrap;html=1;aspect=fixed;" parent="lY8gxCx2SG573fm_s0-x-135" vertex="1">
          <mxGeometry x="157" y="5" width="50" height="50" as="geometry" />
        </mxCell>
        <mxCell id="lY8gxCx2SG573fm_s0-x-140" value="" style="ellipse;whiteSpace=wrap;html=1;aspect=fixed;" parent="lY8gxCx2SG573fm_s0-x-135" vertex="1">
          <mxGeometry x="230" y="5" width="50" height="50" as="geometry" />
        </mxCell>
        <mxCell id="lY8gxCx2SG573fm_s0-x-117" value="" style="group" parent="lY8gxCx2SG573fm_s0-x-141" vertex="1" connectable="0">
          <mxGeometry width="290" height="60" as="geometry" />
        </mxCell>
        <mxCell id="lY8gxCx2SG573fm_s0-x-118" value="" style="rounded=0;whiteSpace=wrap;html=1;fillColor=#693400;" parent="lY8gxCx2SG573fm_s0-x-117" vertex="1">
          <mxGeometry width="290" height="60" as="geometry" />
        </mxCell>
        <mxCell id="lY8gxCx2SG573fm_s0-x-119" value="" style="ellipse;whiteSpace=wrap;html=1;aspect=fixed;" parent="lY8gxCx2SG573fm_s0-x-117" vertex="1">
          <mxGeometry x="10" y="5" width="50" height="50" as="geometry" />
        </mxCell>
        <mxCell id="lY8gxCx2SG573fm_s0-x-120" value="" style="ellipse;whiteSpace=wrap;html=1;aspect=fixed;" parent="lY8gxCx2SG573fm_s0-x-117" vertex="1">
          <mxGeometry x="83" y="5" width="50" height="50" as="geometry" />
        </mxCell>
        <mxCell id="lY8gxCx2SG573fm_s0-x-121" value="" style="ellipse;whiteSpace=wrap;html=1;aspect=fixed;" parent="lY8gxCx2SG573fm_s0-x-117" vertex="1">
          <mxGeometry x="157" y="5" width="50" height="50" as="geometry" />
        </mxCell>
        <mxCell id="lY8gxCx2SG573fm_s0-x-122" value="" style="ellipse;whiteSpace=wrap;html=1;aspect=fixed;" parent="lY8gxCx2SG573fm_s0-x-117" vertex="1">
          <mxGeometry x="230" y="5" width="50" height="50" as="geometry" />
        </mxCell>
        <mxCell id="lY8gxCx2SG573fm_s0-x-123" value="" style="group" parent="lY8gxCx2SG573fm_s0-x-141" vertex="1" connectable="0">
          <mxGeometry y="70" width="290" height="60" as="geometry" />
        </mxCell>
        <mxCell id="lY8gxCx2SG573fm_s0-x-124" value="" style="rounded=0;whiteSpace=wrap;html=1;fillColor=#693400;" parent="lY8gxCx2SG573fm_s0-x-123" vertex="1">
          <mxGeometry width="290" height="60" as="geometry" />
        </mxCell>
        <mxCell id="lY8gxCx2SG573fm_s0-x-125" value="" style="ellipse;whiteSpace=wrap;html=1;aspect=fixed;" parent="lY8gxCx2SG573fm_s0-x-123" vertex="1">
          <mxGeometry x="10" y="5" width="50" height="50" as="geometry" />
        </mxCell>
        <mxCell id="lY8gxCx2SG573fm_s0-x-126" value="" style="ellipse;whiteSpace=wrap;html=1;aspect=fixed;" parent="lY8gxCx2SG573fm_s0-x-123" vertex="1">
          <mxGeometry x="83" y="5" width="50" height="50" as="geometry" />
        </mxCell>
        <mxCell id="lY8gxCx2SG573fm_s0-x-127" value="" style="ellipse;whiteSpace=wrap;html=1;aspect=fixed;" parent="lY8gxCx2SG573fm_s0-x-123" vertex="1">
          <mxGeometry x="157" y="5" width="50" height="50" as="geometry" />
        </mxCell>
        <mxCell id="lY8gxCx2SG573fm_s0-x-128" value="" style="ellipse;whiteSpace=wrap;html=1;aspect=fixed;" parent="lY8gxCx2SG573fm_s0-x-123" vertex="1">
          <mxGeometry x="230" y="5" width="50" height="50" as="geometry" />
        </mxCell>
        <mxCell id="lY8gxCx2SG573fm_s0-x-143" value="" style="endArrow=none;html=1;rounded=0;" parent="1" edge="1">
          <mxGeometry width="50" height="50" relative="1" as="geometry">
            <mxPoint x="500" y="800" as="sourcePoint" />
            <mxPoint x="120" y="800" as="targetPoint" />
          </mxGeometry>
        </mxCell>
        <mxCell id="lY8gxCx2SG573fm_s0-x-144" value="" style="rounded=0;whiteSpace=wrap;html=1;fillColor=#693400;" parent="1" vertex="1">
          <mxGeometry x="130" y="810" width="360" height="60" as="geometry" />
        </mxCell>
        <mxCell id="lY8gxCx2SG573fm_s0-x-156" value="&lt;font style=&quot;font-size: 16px;&quot; color=&quot;#ffffff&quot;&gt;Check&lt;/font&gt;" style="rounded=1;whiteSpace=wrap;html=1;fillColor=#000000;" parent="1" vertex="1">
          <mxGeometry x="130" y="880" width="140" height="30" as="geometry" />
        </mxCell>
        <mxCell id="lY8gxCx2SG573fm_s0-x-157" value="&lt;font style=&quot;font-size: 16px;&quot; color=&quot;#ffffff&quot;&gt;New Game&lt;/font&gt;" style="rounded=1;whiteSpace=wrap;html=1;fillColor=#000000;" parent="1" vertex="1">
          <mxGeometry x="350" y="880" width="140" height="30" as="geometry" />
        </mxCell>
        <mxCell id="lY8gxCx2SG573fm_s0-x-167" value="" style="endArrow=none;html=1;rounded=0;" parent="1" target="lY8gxCx2SG573fm_s0-x-6" edge="1">
          <mxGeometry width="50" height="50" relative="1" as="geometry">
            <mxPoint x="120" y="200" as="sourcePoint" />
            <mxPoint x="170" y="150" as="targetPoint" />
          </mxGeometry>
        </mxCell>
        <mxCell id="lY8gxCx2SG573fm_s0-x-168" value="" style="endArrow=none;html=1;rounded=0;entryX=1;entryY=0.164;entryDx=0;entryDy=0;entryPerimeter=0;" parent="1" edge="1">
          <mxGeometry width="50" height="50" relative="1" as="geometry">
            <mxPoint x="120" y="230" as="sourcePoint" />
            <mxPoint x="500" y="231.20000000000005" as="targetPoint" />
          </mxGeometry>
        </mxCell>
        <mxCell id="lY8gxCx2SG573fm_s0-x-211" value="" style="ellipse;whiteSpace=wrap;html=1;aspect=fixed;fillColor=#FF0000;" parent="1" vertex="1">
          <mxGeometry x="140" y="815" width="50" height="50" as="geometry" />
        </mxCell>
        <mxCell id="lY8gxCx2SG573fm_s0-x-221" value="" style="ellipse;whiteSpace=wrap;html=1;aspect=fixed;fillColor=#FF8000;" parent="1" vertex="1">
          <mxGeometry x="199" y="815" width="50" height="50" as="geometry" />
        </mxCell>
        <mxCell id="lY8gxCx2SG573fm_s0-x-222" value="" style="ellipse;whiteSpace=wrap;html=1;aspect=fixed;fillColor=#FFFF00;" parent="1" vertex="1">
          <mxGeometry x="258" y="815" width="50" height="50" as="geometry" />
        </mxCell>
        <mxCell id="lY8gxCx2SG573fm_s0-x-223" value="" style="ellipse;whiteSpace=wrap;html=1;aspect=fixed;fillColor=#0000FF;" parent="1" vertex="1">
          <mxGeometry x="376" y="815" width="50" height="50" as="geometry" />
        </mxCell>
        <mxCell id="lY8gxCx2SG573fm_s0-x-224" value="" style="ellipse;whiteSpace=wrap;html=1;aspect=fixed;fillColor=#7F00FF;" parent="1" vertex="1">
          <mxGeometry x="435" y="815" width="50" height="50" as="geometry" />
        </mxCell>
        <mxCell id="lY8gxCx2SG573fm_s0-x-225" value="" style="ellipse;whiteSpace=wrap;html=1;aspect=fixed;fillColor=#80FF00;" parent="1" vertex="1">
          <mxGeometry x="317" y="815" width="50" height="50" as="geometry" />
        </mxCell>
        <mxCell id="lY8gxCx2SG573fm_s0-x-227" value="" style="rounded=1;whiteSpace=wrap;html=1;fillColor=#CC0000;" parent="1" vertex="1">
          <mxGeometry x="360" y="160" width="120" height="20" as="geometry" />
        </mxCell>
        <mxCell id="lY8gxCx2SG573fm_s0-x-228" value="" style="rounded=1;whiteSpace=wrap;html=1;fillColor=#CC0000;" parent="1" vertex="1">
          <mxGeometry x="360" y="180" width="120" height="20" as="geometry" />
        </mxCell>
        <mxCell id="lY8gxCx2SG573fm_s0-x-229" value="" style="rounded=1;whiteSpace=wrap;html=1;fillColor=#CC0000;" parent="1" vertex="1">
          <mxGeometry x="360" y="200" width="120" height="20" as="geometry" />
        </mxCell>
        <mxCell id="lY8gxCx2SG573fm_s0-x-232" value="&lt;font style=&quot;font-size: 19px;&quot;&gt;&lt;b&gt;00:00&lt;/b&gt;&lt;/font&gt;" style="rounded=0;whiteSpace=wrap;html=1;fillColor=#FFFFCC;" parent="1" vertex="1">
          <mxGeometry x="380" y="170" width="80" height="40" as="geometry" />
        </mxCell>
        <mxCell id="lY8gxCx2SG573fm_s0-x-233" value="" style="rounded=0;whiteSpace=wrap;html=1;fillColor=#693400;" parent="1" vertex="1">
          <mxGeometry x="140" y="170" width="188.5" height="40" as="geometry" />
        </mxCell>
        <mxCell id="lY8gxCx2SG573fm_s0-x-212" value="" style="ellipse;whiteSpace=wrap;html=1;aspect=fixed;" parent="1" vertex="1">
          <mxGeometry x="150" y="175" width="30" height="30" as="geometry" />
        </mxCell>
        <mxCell id="lY8gxCx2SG573fm_s0-x-234" value="" style="ellipse;whiteSpace=wrap;html=1;aspect=fixed;" parent="1" vertex="1">
          <mxGeometry x="193" y="175" width="30" height="30" as="geometry" />
        </mxCell>
        <mxCell id="lY8gxCx2SG573fm_s0-x-235" value="" style="ellipse;whiteSpace=wrap;html=1;aspect=fixed;" parent="1" vertex="1">
          <mxGeometry x="235" y="175" width="30" height="30" as="geometry" />
        </mxCell>
        <mxCell id="lY8gxCx2SG573fm_s0-x-236" value="" style="ellipse;whiteSpace=wrap;html=1;aspect=fixed;" parent="1" vertex="1">
          <mxGeometry x="278" y="175" width="30" height="30" as="geometry" />
        </mxCell>
        <mxCell id="lY8gxCx2SG573fm_s0-x-242" value="" style="group" parent="1" vertex="1" connectable="0">
          <mxGeometry x="430" y="450" width="60" height="60" as="geometry" />
        </mxCell>
        <mxCell id="lY8gxCx2SG573fm_s0-x-158" value="" style="whiteSpace=wrap;html=1;aspect=fixed;fillColor=#693400;" parent="lY8gxCx2SG573fm_s0-x-242" vertex="1">
          <mxGeometry width="60" height="60" as="geometry" />
        </mxCell>
        <mxCell id="lY8gxCx2SG573fm_s0-x-213" value="" style="ellipse;whiteSpace=wrap;html=1;aspect=fixed;" parent="lY8gxCx2SG573fm_s0-x-242" vertex="1">
          <mxGeometry x="10" y="10" width="10" height="10" as="geometry" />
        </mxCell>
        <mxCell id="lY8gxCx2SG573fm_s0-x-237" value="" style="ellipse;whiteSpace=wrap;html=1;aspect=fixed;" parent="lY8gxCx2SG573fm_s0-x-242" vertex="1">
          <mxGeometry x="40" y="40" width="10" height="10" as="geometry" />
        </mxCell>
        <mxCell id="lY8gxCx2SG573fm_s0-x-238" value="" style="ellipse;whiteSpace=wrap;html=1;aspect=fixed;" parent="lY8gxCx2SG573fm_s0-x-242" vertex="1">
          <mxGeometry x="10" y="40" width="10" height="10" as="geometry" />
        </mxCell>
        <mxCell id="lY8gxCx2SG573fm_s0-x-239" value="" style="ellipse;whiteSpace=wrap;html=1;aspect=fixed;" parent="lY8gxCx2SG573fm_s0-x-242" vertex="1">
          <mxGeometry x="40" y="10" width="10" height="10" as="geometry" />
        </mxCell>
        <mxCell id="lY8gxCx2SG573fm_s0-x-243" value="" style="group" parent="1" vertex="1" connectable="0">
          <mxGeometry x="430" y="520" width="60" height="60" as="geometry" />
        </mxCell>
        <mxCell id="lY8gxCx2SG573fm_s0-x-244" value="" style="whiteSpace=wrap;html=1;aspect=fixed;fillColor=#693400;" parent="lY8gxCx2SG573fm_s0-x-243" vertex="1">
          <mxGeometry width="60" height="60" as="geometry" />
        </mxCell>
        <mxCell id="lY8gxCx2SG573fm_s0-x-245" value="" style="ellipse;whiteSpace=wrap;html=1;aspect=fixed;" parent="lY8gxCx2SG573fm_s0-x-243" vertex="1">
          <mxGeometry x="10" y="10" width="10" height="10" as="geometry" />
        </mxCell>
        <mxCell id="lY8gxCx2SG573fm_s0-x-246" value="" style="ellipse;whiteSpace=wrap;html=1;aspect=fixed;" parent="lY8gxCx2SG573fm_s0-x-243" vertex="1">
          <mxGeometry x="40" y="40" width="10" height="10" as="geometry" />
        </mxCell>
        <mxCell id="lY8gxCx2SG573fm_s0-x-247" value="" style="ellipse;whiteSpace=wrap;html=1;aspect=fixed;" parent="lY8gxCx2SG573fm_s0-x-243" vertex="1">
          <mxGeometry x="10" y="40" width="10" height="10" as="geometry" />
        </mxCell>
        <mxCell id="lY8gxCx2SG573fm_s0-x-248" value="" style="ellipse;whiteSpace=wrap;html=1;aspect=fixed;" parent="lY8gxCx2SG573fm_s0-x-243" vertex="1">
          <mxGeometry x="40" y="10" width="10" height="10" as="geometry" />
        </mxCell>
        <mxCell id="lY8gxCx2SG573fm_s0-x-249" value="" style="group" parent="1" vertex="1" connectable="0">
          <mxGeometry x="430" y="590" width="60" height="60" as="geometry" />
        </mxCell>
        <mxCell id="lY8gxCx2SG573fm_s0-x-250" value="" style="whiteSpace=wrap;html=1;aspect=fixed;fillColor=#693400;" parent="lY8gxCx2SG573fm_s0-x-249" vertex="1">
          <mxGeometry width="60" height="60" as="geometry" />
        </mxCell>
        <mxCell id="lY8gxCx2SG573fm_s0-x-251" value="" style="ellipse;whiteSpace=wrap;html=1;aspect=fixed;" parent="lY8gxCx2SG573fm_s0-x-249" vertex="1">
          <mxGeometry x="10" y="10" width="10" height="10" as="geometry" />
        </mxCell>
        <mxCell id="lY8gxCx2SG573fm_s0-x-252" value="" style="ellipse;whiteSpace=wrap;html=1;aspect=fixed;" parent="lY8gxCx2SG573fm_s0-x-249" vertex="1">
          <mxGeometry x="40" y="40" width="10" height="10" as="geometry" />
        </mxCell>
        <mxCell id="lY8gxCx2SG573fm_s0-x-253" value="" style="ellipse;whiteSpace=wrap;html=1;aspect=fixed;" parent="lY8gxCx2SG573fm_s0-x-249" vertex="1">
          <mxGeometry x="10" y="40" width="10" height="10" as="geometry" />
        </mxCell>
        <mxCell id="lY8gxCx2SG573fm_s0-x-254" value="" style="ellipse;whiteSpace=wrap;html=1;aspect=fixed;" parent="lY8gxCx2SG573fm_s0-x-249" vertex="1">
          <mxGeometry x="40" y="10" width="10" height="10" as="geometry" />
        </mxCell>
        <mxCell id="lY8gxCx2SG573fm_s0-x-255" value="" style="group" parent="1" vertex="1" connectable="0">
          <mxGeometry x="430" y="660" width="60" height="60" as="geometry" />
        </mxCell>
        <mxCell id="lY8gxCx2SG573fm_s0-x-256" value="" style="whiteSpace=wrap;html=1;aspect=fixed;fillColor=#693400;" parent="lY8gxCx2SG573fm_s0-x-255" vertex="1">
          <mxGeometry width="60" height="60" as="geometry" />
        </mxCell>
        <mxCell id="lY8gxCx2SG573fm_s0-x-257" value="" style="ellipse;whiteSpace=wrap;html=1;aspect=fixed;" parent="lY8gxCx2SG573fm_s0-x-255" vertex="1">
          <mxGeometry x="10" y="10" width="10" height="10" as="geometry" />
        </mxCell>
        <mxCell id="lY8gxCx2SG573fm_s0-x-258" value="" style="ellipse;whiteSpace=wrap;html=1;aspect=fixed;" parent="lY8gxCx2SG573fm_s0-x-255" vertex="1">
          <mxGeometry x="40" y="40" width="10" height="10" as="geometry" />
        </mxCell>
        <mxCell id="lY8gxCx2SG573fm_s0-x-259" value="" style="ellipse;whiteSpace=wrap;html=1;aspect=fixed;" parent="lY8gxCx2SG573fm_s0-x-255" vertex="1">
          <mxGeometry x="10" y="40" width="10" height="10" as="geometry" />
        </mxCell>
        <mxCell id="lY8gxCx2SG573fm_s0-x-260" value="" style="ellipse;whiteSpace=wrap;html=1;aspect=fixed;" parent="lY8gxCx2SG573fm_s0-x-255" vertex="1">
          <mxGeometry x="40" y="10" width="10" height="10" as="geometry" />
        </mxCell>
        <mxCell id="lY8gxCx2SG573fm_s0-x-261" value="" style="group" parent="1" vertex="1" connectable="0">
          <mxGeometry x="430" y="730" width="60" height="60" as="geometry" />
        </mxCell>
        <mxCell id="lY8gxCx2SG573fm_s0-x-262" value="" style="whiteSpace=wrap;html=1;aspect=fixed;fillColor=#693400;" parent="lY8gxCx2SG573fm_s0-x-261" vertex="1">
          <mxGeometry width="60" height="60" as="geometry" />
        </mxCell>
        <mxCell id="lY8gxCx2SG573fm_s0-x-263" value="" style="ellipse;whiteSpace=wrap;html=1;aspect=fixed;" parent="lY8gxCx2SG573fm_s0-x-261" vertex="1">
          <mxGeometry x="10" y="10" width="10" height="10" as="geometry" />
        </mxCell>
        <mxCell id="lY8gxCx2SG573fm_s0-x-264" value="" style="ellipse;whiteSpace=wrap;html=1;aspect=fixed;" parent="lY8gxCx2SG573fm_s0-x-261" vertex="1">
          <mxGeometry x="40" y="40" width="10" height="10" as="geometry" />
        </mxCell>
        <mxCell id="lY8gxCx2SG573fm_s0-x-265" value="" style="ellipse;whiteSpace=wrap;html=1;aspect=fixed;" parent="lY8gxCx2SG573fm_s0-x-261" vertex="1">
          <mxGeometry x="10" y="40" width="10" height="10" as="geometry" />
        </mxCell>
        <mxCell id="lY8gxCx2SG573fm_s0-x-266" value="" style="ellipse;whiteSpace=wrap;html=1;aspect=fixed;" parent="lY8gxCx2SG573fm_s0-x-261" vertex="1">
          <mxGeometry x="40" y="10" width="10" height="10" as="geometry" />
        </mxCell>
        <mxCell id="lY8gxCx2SG573fm_s0-x-267" value="" style="group;fillColor=#693400;" parent="1" vertex="1" connectable="0">
          <mxGeometry x="430" y="240" width="60" height="60" as="geometry" />
        </mxCell>
        <mxCell id="lY8gxCx2SG573fm_s0-x-268" value="" style="whiteSpace=wrap;html=1;aspect=fixed;fillColor=#693400;" parent="lY8gxCx2SG573fm_s0-x-267" vertex="1">
          <mxGeometry width="60" height="60" as="geometry" />
        </mxCell>
        <mxCell id="lY8gxCx2SG573fm_s0-x-269" value="" style="ellipse;whiteSpace=wrap;html=1;aspect=fixed;" parent="lY8gxCx2SG573fm_s0-x-267" vertex="1">
          <mxGeometry x="10" y="10" width="10" height="10" as="geometry" />
        </mxCell>
        <mxCell id="lY8gxCx2SG573fm_s0-x-270" value="" style="ellipse;whiteSpace=wrap;html=1;aspect=fixed;" parent="lY8gxCx2SG573fm_s0-x-267" vertex="1">
          <mxGeometry x="40" y="40" width="10" height="10" as="geometry" />
        </mxCell>
        <mxCell id="lY8gxCx2SG573fm_s0-x-271" value="" style="ellipse;whiteSpace=wrap;html=1;aspect=fixed;" parent="lY8gxCx2SG573fm_s0-x-267" vertex="1">
          <mxGeometry x="10" y="40" width="10" height="10" as="geometry" />
        </mxCell>
        <mxCell id="lY8gxCx2SG573fm_s0-x-272" value="" style="ellipse;whiteSpace=wrap;html=1;aspect=fixed;" parent="lY8gxCx2SG573fm_s0-x-267" vertex="1">
          <mxGeometry x="40" y="10" width="10" height="10" as="geometry" />
        </mxCell>
        <mxCell id="lY8gxCx2SG573fm_s0-x-273" value="" style="group" parent="1" vertex="1" connectable="0">
          <mxGeometry x="430" y="310" width="60" height="60" as="geometry" />
        </mxCell>
        <mxCell id="lY8gxCx2SG573fm_s0-x-274" value="" style="whiteSpace=wrap;html=1;aspect=fixed;fillColor=#693400;" parent="lY8gxCx2SG573fm_s0-x-273" vertex="1">
          <mxGeometry width="60" height="60" as="geometry" />
        </mxCell>
        <mxCell id="lY8gxCx2SG573fm_s0-x-275" value="" style="ellipse;whiteSpace=wrap;html=1;aspect=fixed;" parent="lY8gxCx2SG573fm_s0-x-273" vertex="1">
          <mxGeometry x="10" y="10" width="10" height="10" as="geometry" />
        </mxCell>
        <mxCell id="lY8gxCx2SG573fm_s0-x-276" value="" style="ellipse;whiteSpace=wrap;html=1;aspect=fixed;" parent="lY8gxCx2SG573fm_s0-x-273" vertex="1">
          <mxGeometry x="40" y="40" width="10" height="10" as="geometry" />
        </mxCell>
        <mxCell id="lY8gxCx2SG573fm_s0-x-277" value="" style="ellipse;whiteSpace=wrap;html=1;aspect=fixed;" parent="lY8gxCx2SG573fm_s0-x-273" vertex="1">
          <mxGeometry x="10" y="40" width="10" height="10" as="geometry" />
        </mxCell>
        <mxCell id="lY8gxCx2SG573fm_s0-x-278" value="" style="ellipse;whiteSpace=wrap;html=1;aspect=fixed;" parent="lY8gxCx2SG573fm_s0-x-273" vertex="1">
          <mxGeometry x="40" y="10" width="10" height="10" as="geometry" />
        </mxCell>
        <mxCell id="lY8gxCx2SG573fm_s0-x-279" value="" style="group" parent="1" vertex="1" connectable="0">
          <mxGeometry x="430" y="380" width="60" height="60" as="geometry" />
        </mxCell>
        <mxCell id="lY8gxCx2SG573fm_s0-x-280" value="" style="whiteSpace=wrap;html=1;aspect=fixed;fillColor=#693400;" parent="lY8gxCx2SG573fm_s0-x-279" vertex="1">
          <mxGeometry width="60" height="60" as="geometry" />
        </mxCell>
        <mxCell id="lY8gxCx2SG573fm_s0-x-281" value="" style="ellipse;whiteSpace=wrap;html=1;aspect=fixed;" parent="lY8gxCx2SG573fm_s0-x-279" vertex="1">
          <mxGeometry x="10" y="10" width="10" height="10" as="geometry" />
        </mxCell>
        <mxCell id="lY8gxCx2SG573fm_s0-x-282" value="" style="ellipse;whiteSpace=wrap;html=1;aspect=fixed;" parent="lY8gxCx2SG573fm_s0-x-279" vertex="1">
          <mxGeometry x="40" y="40" width="10" height="10" as="geometry" />
        </mxCell>
        <mxCell id="lY8gxCx2SG573fm_s0-x-283" value="" style="ellipse;whiteSpace=wrap;html=1;aspect=fixed;" parent="lY8gxCx2SG573fm_s0-x-279" vertex="1">
          <mxGeometry x="10" y="40" width="10" height="10" as="geometry" />
        </mxCell>
        <mxCell id="lY8gxCx2SG573fm_s0-x-284" value="" style="ellipse;whiteSpace=wrap;html=1;aspect=fixed;" parent="lY8gxCx2SG573fm_s0-x-279" vertex="1">
          <mxGeometry x="40" y="10" width="10" height="10" as="geometry" />
        </mxCell>
        <mxCell id="lY8gxCx2SG573fm_s0-x-287" value="" style="rounded=0;whiteSpace=wrap;html=1;fillColor=#646b37;" parent="1" vertex="1">
          <mxGeometry x="69.5" y="80" width="480" height="50" as="geometry" />
        </mxCell>
        <mxCell id="lY8gxCx2SG573fm_s0-x-289" value="&lt;font size=&quot;1&quot; color=&quot;#ff0000&quot; style=&quot;&quot;&gt;&lt;b style=&quot;font-size: 24px;&quot;&gt;X&lt;/b&gt;&lt;/font&gt;" style="whiteSpace=wrap;html=1;aspect=fixed;" parent="1" vertex="1">
          <mxGeometry x="500" y="80" width="50" height="50" as="geometry" />
        </mxCell>
        <mxCell id="lY8gxCx2SG573fm_s0-x-290" value="&lt;font style=&quot;font-size: 24px;&quot;&gt;Military Mastermind&lt;/font&gt;" style="text;html=1;strokeColor=none;fillColor=none;align=center;verticalAlign=middle;whiteSpace=wrap;rounded=0;fontColor=#FFFFFF;fontStyle=1" parent="1" vertex="1">
          <mxGeometry x="173.25" y="90" width="239.5" height="30" as="geometry" />
        </mxCell>
        <mxCell id="lY8gxCx2SG573fm_s0-x-291" value="" style="rounded=0;whiteSpace=wrap;html=1;fillColor=#4b5320;" parent="1" vertex="1">
          <mxGeometry x="-639.5" y="50" width="481" height="350" as="geometry" />
        </mxCell>
        <mxCell id="lY8gxCx2SG573fm_s0-x-413" value="" style="rounded=0;whiteSpace=wrap;html=1;fillColor=#646b37;" parent="1" vertex="1">
          <mxGeometry x="-640" y="50" width="481.5" height="50" as="geometry" />
        </mxCell>
        <mxCell id="lY8gxCx2SG573fm_s0-x-414" value="&lt;font size=&quot;1&quot; color=&quot;#ff0000&quot; style=&quot;&quot;&gt;&lt;b style=&quot;font-size: 24px;&quot;&gt;X&lt;/b&gt;&lt;/font&gt;" style="whiteSpace=wrap;html=1;aspect=fixed;" parent="1" vertex="1">
          <mxGeometry x="-208.5" y="50" width="50" height="50" as="geometry" />
        </mxCell>
        <mxCell id="lY8gxCx2SG573fm_s0-x-415" value="&lt;font style=&quot;font-size: 24px;&quot;&gt;Military Mastermind&lt;/font&gt;" style="text;html=1;strokeColor=none;fillColor=none;align=center;verticalAlign=middle;whiteSpace=wrap;rounded=0;fontColor=#FFFFFF;fontStyle=1" parent="1" vertex="1">
          <mxGeometry x="-536.25" y="60" width="239.5" height="30" as="geometry" />
        </mxCell>
        <mxCell id="lY8gxCx2SG573fm_s0-x-416" value="" style="verticalLabelPosition=bottom;verticalAlign=top;html=1;shape=mxgraph.basic.8_point_star;fillColor=#FF0000;" parent="1" vertex="1">
          <mxGeometry x="-551.5" y="130" width="270" height="220" as="geometry" />
        </mxCell>
        <mxCell id="lY8gxCx2SG573fm_s0-x-417" value="" style="verticalLabelPosition=bottom;verticalAlign=top;html=1;shape=mxgraph.basic.8_point_star;rotation=-15;fillColor=#FF9933;" parent="1" vertex="1">
          <mxGeometry x="-490.25" y="110" width="216.25" height="190" as="geometry" />
        </mxCell>
        <mxCell id="lY8gxCx2SG573fm_s0-x-418" value="" style="verticalLabelPosition=bottom;verticalAlign=top;html=1;shape=mxgraph.basic.8_point_star;fillColor=#FFFFCC;" parent="1" vertex="1">
          <mxGeometry x="-520" y="150" width="164" height="165" as="geometry" />
        </mxCell>
        <mxCell id="lY8gxCx2SG573fm_s0-x-419" value="" style="verticalLabelPosition=bottom;verticalAlign=top;html=1;shape=mxgraph.basic.8_point_star;fillColor=#FF6666;" parent="1" vertex="1">
          <mxGeometry x="-480" y="160" width="176" height="130" as="geometry" />
        </mxCell>
        <mxCell id="lY8gxCx2SG573fm_s0-x-420" value="&lt;font style=&quot;font-size: 22px;&quot;&gt;&lt;b&gt;GAME OVER !&lt;/b&gt;&lt;/font&gt;" style="rounded=0;whiteSpace=wrap;html=1;" parent="1" vertex="1">
          <mxGeometry x="-487" y="198.75" width="176" height="52.5" as="geometry" />
        </mxCell>
        <mxCell id="lY8gxCx2SG573fm_s0-x-421" value="" style="rounded=0;whiteSpace=wrap;html=1;fillColor=#4b5320;strokeColor=#FFD966;" parent="1" vertex="1">
          <mxGeometry x="-639.5" y="430" width="481" height="350" as="geometry" />
        </mxCell>
        <mxCell id="lY8gxCx2SG573fm_s0-x-422" value="" style="rounded=0;whiteSpace=wrap;html=1;fillColor=#646b37;" parent="1" vertex="1">
          <mxGeometry x="-640" y="430" width="481.5" height="50" as="geometry" />
        </mxCell>
        <mxCell id="lY8gxCx2SG573fm_s0-x-423" value="&lt;font size=&quot;1&quot; color=&quot;#ff0000&quot; style=&quot;&quot;&gt;&lt;b style=&quot;font-size: 24px;&quot;&gt;X&lt;/b&gt;&lt;/font&gt;" style="whiteSpace=wrap;html=1;aspect=fixed;" parent="1" vertex="1">
          <mxGeometry x="-208.5" y="430" width="50" height="50" as="geometry" />
        </mxCell>
        <mxCell id="lY8gxCx2SG573fm_s0-x-424" value="&lt;font style=&quot;font-size: 24px;&quot;&gt;Military Mastermind&lt;/font&gt;" style="text;html=1;strokeColor=none;fillColor=none;align=center;verticalAlign=middle;whiteSpace=wrap;rounded=0;fontColor=#FFFFFF;fontStyle=1" parent="1" vertex="1">
          <mxGeometry x="-536.25" y="440" width="239.5" height="30" as="geometry" />
        </mxCell>
        <mxCell id="lY8gxCx2SG573fm_s0-x-434" value="" style="verticalLabelPosition=bottom;verticalAlign=top;html=1;shape=mxgraph.basic.star;fontColor=#FFFF00;fillColor=#FFD966;" parent="1" vertex="1">
          <mxGeometry x="-526.06" y="540" width="252.06" height="220" as="geometry" />
        </mxCell>
        <mxCell id="lY8gxCx2SG573fm_s0-x-430" value="&lt;font style=&quot;font-size: 22px;&quot;&gt;&lt;b&gt;BOMB DEFUSED&lt;/b&gt;&lt;/font&gt;" style="rounded=0;whiteSpace=wrap;html=1;" parent="1" vertex="1">
          <mxGeometry x="-497" y="635" width="193" height="40" as="geometry" />
        </mxCell>
        <mxCell id="lY8gxCx2SG573fm_s0-x-436" value="&lt;b style=&quot;border-color: var(--border-color);&quot;&gt;&lt;font color=&quot;#ffffff&quot; style=&quot;border-color: var(--border-color); font-size: 22px;&quot;&gt;MISSION SUCCESS !&lt;/font&gt;&lt;/b&gt;" style="text;html=1;strokeColor=none;fillColor=none;align=center;verticalAlign=middle;whiteSpace=wrap;rounded=0;" parent="1" vertex="1">
          <mxGeometry x="-519" y="490" width="240" height="30" as="geometry" />
        </mxCell>
        <mxCell id="lY8gxCx2SG573fm_s0-x-438" value="" style="rounded=0;whiteSpace=wrap;html=1;fillColor=#8C4700;" parent="1" vertex="1">
          <mxGeometry x="-440" y="970" width="380" height="770" as="geometry" />
        </mxCell>
        <mxCell id="lY8gxCx2SG573fm_s0-x-439" value="" style="group;fillColor=#7D3E00;" parent="1" vertex="1" connectable="0">
          <mxGeometry x="-430" y="1060" width="290" height="270" as="geometry" />
        </mxCell>
        <mxCell id="lY8gxCx2SG573fm_s0-x-440" value="" style="group" parent="lY8gxCx2SG573fm_s0-x-439" vertex="1" connectable="0">
          <mxGeometry width="290" height="60" as="geometry" />
        </mxCell>
        <mxCell id="lY8gxCx2SG573fm_s0-x-441" value="" style="rounded=0;whiteSpace=wrap;html=1;fillColor=#693400;" parent="lY8gxCx2SG573fm_s0-x-440" vertex="1">
          <mxGeometry width="290" height="60" as="geometry" />
        </mxCell>
        <mxCell id="lY8gxCx2SG573fm_s0-x-442" value="" style="ellipse;whiteSpace=wrap;html=1;aspect=fixed;" parent="lY8gxCx2SG573fm_s0-x-440" vertex="1">
          <mxGeometry x="10" y="5" width="50" height="50" as="geometry" />
        </mxCell>
        <mxCell id="lY8gxCx2SG573fm_s0-x-443" value="" style="ellipse;whiteSpace=wrap;html=1;aspect=fixed;" parent="lY8gxCx2SG573fm_s0-x-440" vertex="1">
          <mxGeometry x="83" y="5" width="50" height="50" as="geometry" />
        </mxCell>
        <mxCell id="lY8gxCx2SG573fm_s0-x-444" value="" style="ellipse;whiteSpace=wrap;html=1;aspect=fixed;" parent="lY8gxCx2SG573fm_s0-x-440" vertex="1">
          <mxGeometry x="157" y="5" width="50" height="50" as="geometry" />
        </mxCell>
        <mxCell id="lY8gxCx2SG573fm_s0-x-445" value="" style="ellipse;whiteSpace=wrap;html=1;aspect=fixed;" parent="lY8gxCx2SG573fm_s0-x-440" vertex="1">
          <mxGeometry x="230" y="5" width="50" height="50" as="geometry" />
        </mxCell>
        <mxCell id="lY8gxCx2SG573fm_s0-x-446" value="" style="group" parent="lY8gxCx2SG573fm_s0-x-439" vertex="1" connectable="0">
          <mxGeometry y="70" width="290" height="60" as="geometry" />
        </mxCell>
        <mxCell id="lY8gxCx2SG573fm_s0-x-447" value="" style="rounded=0;whiteSpace=wrap;html=1;fillColor=#693400;" parent="lY8gxCx2SG573fm_s0-x-446" vertex="1">
          <mxGeometry width="290" height="60" as="geometry" />
        </mxCell>
        <mxCell id="lY8gxCx2SG573fm_s0-x-448" value="" style="ellipse;whiteSpace=wrap;html=1;aspect=fixed;" parent="lY8gxCx2SG573fm_s0-x-446" vertex="1">
          <mxGeometry x="10" y="5" width="50" height="50" as="geometry" />
        </mxCell>
        <mxCell id="lY8gxCx2SG573fm_s0-x-449" value="" style="ellipse;whiteSpace=wrap;html=1;aspect=fixed;" parent="lY8gxCx2SG573fm_s0-x-446" vertex="1">
          <mxGeometry x="83" y="5" width="50" height="50" as="geometry" />
        </mxCell>
        <mxCell id="lY8gxCx2SG573fm_s0-x-450" value="" style="ellipse;whiteSpace=wrap;html=1;aspect=fixed;" parent="lY8gxCx2SG573fm_s0-x-446" vertex="1">
          <mxGeometry x="157" y="5" width="50" height="50" as="geometry" />
        </mxCell>
        <mxCell id="lY8gxCx2SG573fm_s0-x-451" value="" style="ellipse;whiteSpace=wrap;html=1;aspect=fixed;" parent="lY8gxCx2SG573fm_s0-x-446" vertex="1">
          <mxGeometry x="230" y="5" width="50" height="50" as="geometry" />
        </mxCell>
        <mxCell id="lY8gxCx2SG573fm_s0-x-452" value="" style="group;fillColor=#693400;" parent="lY8gxCx2SG573fm_s0-x-439" vertex="1" connectable="0">
          <mxGeometry y="210" width="290" height="60" as="geometry" />
        </mxCell>
        <mxCell id="lY8gxCx2SG573fm_s0-x-453" value="" style="rounded=0;whiteSpace=wrap;html=1;fillColor=#693400;" parent="lY8gxCx2SG573fm_s0-x-452" vertex="1">
          <mxGeometry width="290" height="60" as="geometry" />
        </mxCell>
        <mxCell id="lY8gxCx2SG573fm_s0-x-454" value="" style="ellipse;whiteSpace=wrap;html=1;aspect=fixed;" parent="lY8gxCx2SG573fm_s0-x-452" vertex="1">
          <mxGeometry x="10" y="5" width="50" height="50" as="geometry" />
        </mxCell>
        <mxCell id="lY8gxCx2SG573fm_s0-x-455" value="" style="ellipse;whiteSpace=wrap;html=1;aspect=fixed;" parent="lY8gxCx2SG573fm_s0-x-452" vertex="1">
          <mxGeometry x="83" y="5" width="50" height="50" as="geometry" />
        </mxCell>
        <mxCell id="lY8gxCx2SG573fm_s0-x-456" value="" style="ellipse;whiteSpace=wrap;html=1;aspect=fixed;" parent="lY8gxCx2SG573fm_s0-x-452" vertex="1">
          <mxGeometry x="157" y="5" width="50" height="50" as="geometry" />
        </mxCell>
        <mxCell id="lY8gxCx2SG573fm_s0-x-457" value="" style="ellipse;whiteSpace=wrap;html=1;aspect=fixed;" parent="lY8gxCx2SG573fm_s0-x-452" vertex="1">
          <mxGeometry x="230" y="5" width="50" height="50" as="geometry" />
        </mxCell>
        <mxCell id="lY8gxCx2SG573fm_s0-x-458" value="" style="group" parent="lY8gxCx2SG573fm_s0-x-439" vertex="1" connectable="0">
          <mxGeometry y="140" width="290" height="60" as="geometry" />
        </mxCell>
        <mxCell id="lY8gxCx2SG573fm_s0-x-459" value="" style="rounded=0;whiteSpace=wrap;html=1;fillColor=#693400;" parent="lY8gxCx2SG573fm_s0-x-458" vertex="1">
          <mxGeometry width="290" height="60" as="geometry" />
        </mxCell>
        <mxCell id="lY8gxCx2SG573fm_s0-x-460" value="" style="ellipse;whiteSpace=wrap;html=1;aspect=fixed;" parent="lY8gxCx2SG573fm_s0-x-458" vertex="1">
          <mxGeometry x="10" y="5" width="50" height="50" as="geometry" />
        </mxCell>
        <mxCell id="lY8gxCx2SG573fm_s0-x-461" value="" style="ellipse;whiteSpace=wrap;html=1;aspect=fixed;" parent="lY8gxCx2SG573fm_s0-x-458" vertex="1">
          <mxGeometry x="83" y="5" width="50" height="50" as="geometry" />
        </mxCell>
        <mxCell id="lY8gxCx2SG573fm_s0-x-462" value="" style="ellipse;whiteSpace=wrap;html=1;aspect=fixed;" parent="lY8gxCx2SG573fm_s0-x-458" vertex="1">
          <mxGeometry x="157" y="5" width="50" height="50" as="geometry" />
        </mxCell>
        <mxCell id="lY8gxCx2SG573fm_s0-x-463" value="" style="ellipse;whiteSpace=wrap;html=1;aspect=fixed;" parent="lY8gxCx2SG573fm_s0-x-458" vertex="1">
          <mxGeometry x="230" y="5" width="50" height="50" as="geometry" />
        </mxCell>
        <mxCell id="lY8gxCx2SG573fm_s0-x-464" value="" style="group" parent="1" vertex="1" connectable="0">
          <mxGeometry x="-430" y="1340" width="290" height="270" as="geometry" />
        </mxCell>
        <mxCell id="lY8gxCx2SG573fm_s0-x-465" value="" style="group" parent="lY8gxCx2SG573fm_s0-x-464" vertex="1" connectable="0">
          <mxGeometry width="290" height="270" as="geometry" />
        </mxCell>
        <mxCell id="lY8gxCx2SG573fm_s0-x-466" value="" style="group" parent="lY8gxCx2SG573fm_s0-x-465" vertex="1" connectable="0">
          <mxGeometry y="210" width="290" height="60" as="geometry" />
        </mxCell>
        <mxCell id="lY8gxCx2SG573fm_s0-x-467" value="" style="rounded=0;whiteSpace=wrap;html=1;fillColor=#693400;" parent="lY8gxCx2SG573fm_s0-x-466" vertex="1">
          <mxGeometry width="290" height="60" as="geometry" />
        </mxCell>
        <mxCell id="lY8gxCx2SG573fm_s0-x-468" value="" style="ellipse;whiteSpace=wrap;html=1;aspect=fixed;" parent="lY8gxCx2SG573fm_s0-x-466" vertex="1">
          <mxGeometry x="10" y="5" width="50" height="50" as="geometry" />
        </mxCell>
        <mxCell id="lY8gxCx2SG573fm_s0-x-469" value="" style="ellipse;whiteSpace=wrap;html=1;aspect=fixed;" parent="lY8gxCx2SG573fm_s0-x-466" vertex="1">
          <mxGeometry x="83" y="5" width="50" height="50" as="geometry" />
        </mxCell>
        <mxCell id="lY8gxCx2SG573fm_s0-x-470" value="" style="ellipse;whiteSpace=wrap;html=1;aspect=fixed;" parent="lY8gxCx2SG573fm_s0-x-466" vertex="1">
          <mxGeometry x="157" y="5" width="50" height="50" as="geometry" />
        </mxCell>
        <mxCell id="lY8gxCx2SG573fm_s0-x-471" value="" style="ellipse;whiteSpace=wrap;html=1;aspect=fixed;" parent="lY8gxCx2SG573fm_s0-x-466" vertex="1">
          <mxGeometry x="230" y="5" width="50" height="50" as="geometry" />
        </mxCell>
        <mxCell id="lY8gxCx2SG573fm_s0-x-472" value="" style="group" parent="lY8gxCx2SG573fm_s0-x-465" vertex="1" connectable="0">
          <mxGeometry y="140" width="290" height="60" as="geometry" />
        </mxCell>
        <mxCell id="lY8gxCx2SG573fm_s0-x-473" value="" style="rounded=0;whiteSpace=wrap;html=1;fillColor=#693400;" parent="lY8gxCx2SG573fm_s0-x-472" vertex="1">
          <mxGeometry width="290" height="60" as="geometry" />
        </mxCell>
        <mxCell id="lY8gxCx2SG573fm_s0-x-474" value="" style="ellipse;whiteSpace=wrap;html=1;aspect=fixed;" parent="lY8gxCx2SG573fm_s0-x-472" vertex="1">
          <mxGeometry x="10" y="5" width="50" height="50" as="geometry" />
        </mxCell>
        <mxCell id="lY8gxCx2SG573fm_s0-x-475" value="" style="ellipse;whiteSpace=wrap;html=1;aspect=fixed;" parent="lY8gxCx2SG573fm_s0-x-472" vertex="1">
          <mxGeometry x="83" y="5" width="50" height="50" as="geometry" />
        </mxCell>
        <mxCell id="lY8gxCx2SG573fm_s0-x-476" value="" style="ellipse;whiteSpace=wrap;html=1;aspect=fixed;" parent="lY8gxCx2SG573fm_s0-x-472" vertex="1">
          <mxGeometry x="157" y="5" width="50" height="50" as="geometry" />
        </mxCell>
        <mxCell id="lY8gxCx2SG573fm_s0-x-477" value="" style="ellipse;whiteSpace=wrap;html=1;aspect=fixed;" parent="lY8gxCx2SG573fm_s0-x-472" vertex="1">
          <mxGeometry x="230" y="5" width="50" height="50" as="geometry" />
        </mxCell>
        <mxCell id="lY8gxCx2SG573fm_s0-x-478" value="" style="group" parent="lY8gxCx2SG573fm_s0-x-464" vertex="1" connectable="0">
          <mxGeometry width="290" height="60" as="geometry" />
        </mxCell>
        <mxCell id="lY8gxCx2SG573fm_s0-x-479" value="" style="rounded=0;whiteSpace=wrap;html=1;fillColor=#693400;" parent="lY8gxCx2SG573fm_s0-x-478" vertex="1">
          <mxGeometry width="290" height="60" as="geometry" />
        </mxCell>
        <mxCell id="lY8gxCx2SG573fm_s0-x-480" value="" style="ellipse;whiteSpace=wrap;html=1;aspect=fixed;" parent="lY8gxCx2SG573fm_s0-x-478" vertex="1">
          <mxGeometry x="10" y="5" width="50" height="50" as="geometry" />
        </mxCell>
        <mxCell id="lY8gxCx2SG573fm_s0-x-481" value="" style="ellipse;whiteSpace=wrap;html=1;aspect=fixed;" parent="lY8gxCx2SG573fm_s0-x-478" vertex="1">
          <mxGeometry x="83" y="5" width="50" height="50" as="geometry" />
        </mxCell>
        <mxCell id="lY8gxCx2SG573fm_s0-x-482" value="" style="ellipse;whiteSpace=wrap;html=1;aspect=fixed;" parent="lY8gxCx2SG573fm_s0-x-478" vertex="1">
          <mxGeometry x="157" y="5" width="50" height="50" as="geometry" />
        </mxCell>
        <mxCell id="lY8gxCx2SG573fm_s0-x-483" value="" style="ellipse;whiteSpace=wrap;html=1;aspect=fixed;" parent="lY8gxCx2SG573fm_s0-x-478" vertex="1">
          <mxGeometry x="230" y="5" width="50" height="50" as="geometry" />
        </mxCell>
        <mxCell id="lY8gxCx2SG573fm_s0-x-484" value="" style="group" parent="lY8gxCx2SG573fm_s0-x-464" vertex="1" connectable="0">
          <mxGeometry y="70" width="290" height="60" as="geometry" />
        </mxCell>
        <mxCell id="lY8gxCx2SG573fm_s0-x-485" value="" style="rounded=0;whiteSpace=wrap;html=1;fillColor=#693400;" parent="lY8gxCx2SG573fm_s0-x-484" vertex="1">
          <mxGeometry width="290" height="60" as="geometry" />
        </mxCell>
        <mxCell id="lY8gxCx2SG573fm_s0-x-486" value="" style="ellipse;whiteSpace=wrap;html=1;aspect=fixed;" parent="lY8gxCx2SG573fm_s0-x-484" vertex="1">
          <mxGeometry x="10" y="5" width="50" height="50" as="geometry" />
        </mxCell>
        <mxCell id="lY8gxCx2SG573fm_s0-x-487" value="" style="ellipse;whiteSpace=wrap;html=1;aspect=fixed;" parent="lY8gxCx2SG573fm_s0-x-484" vertex="1">
          <mxGeometry x="83" y="5" width="50" height="50" as="geometry" />
        </mxCell>
        <mxCell id="lY8gxCx2SG573fm_s0-x-488" value="" style="ellipse;whiteSpace=wrap;html=1;aspect=fixed;" parent="lY8gxCx2SG573fm_s0-x-484" vertex="1">
          <mxGeometry x="157" y="5" width="50" height="50" as="geometry" />
        </mxCell>
        <mxCell id="lY8gxCx2SG573fm_s0-x-489" value="" style="ellipse;whiteSpace=wrap;html=1;aspect=fixed;" parent="lY8gxCx2SG573fm_s0-x-484" vertex="1">
          <mxGeometry x="230" y="5" width="50" height="50" as="geometry" />
        </mxCell>
        <mxCell id="lY8gxCx2SG573fm_s0-x-490" value="" style="endArrow=none;html=1;rounded=0;" parent="1" edge="1">
          <mxGeometry width="50" height="50" relative="1" as="geometry">
            <mxPoint x="-60" y="1620" as="sourcePoint" />
            <mxPoint x="-440" y="1620" as="targetPoint" />
          </mxGeometry>
        </mxCell>
        <mxCell id="lY8gxCx2SG573fm_s0-x-491" value="" style="rounded=0;whiteSpace=wrap;html=1;fillColor=#693400;" parent="1" vertex="1">
          <mxGeometry x="-430" y="1630" width="360" height="60" as="geometry" />
        </mxCell>
        <mxCell id="lY8gxCx2SG573fm_s0-x-492" value="&lt;font style=&quot;font-size: 16px;&quot; color=&quot;#ffffff&quot;&gt;Check&lt;/font&gt;" style="rounded=1;whiteSpace=wrap;html=1;fillColor=#000000;" parent="1" vertex="1">
          <mxGeometry x="-430" y="1700" width="140" height="30" as="geometry" />
        </mxCell>
        <mxCell id="lY8gxCx2SG573fm_s0-x-493" value="&lt;font style=&quot;font-size: 16px;&quot; color=&quot;#ffffff&quot;&gt;New Game&lt;/font&gt;" style="rounded=1;whiteSpace=wrap;html=1;fillColor=#000000;" parent="1" vertex="1">
          <mxGeometry x="-210" y="1700" width="140" height="30" as="geometry" />
        </mxCell>
        <mxCell id="lY8gxCx2SG573fm_s0-x-494" value="" style="endArrow=none;html=1;rounded=0;" parent="1" target="lY8gxCx2SG573fm_s0-x-438" edge="1">
          <mxGeometry width="50" height="50" relative="1" as="geometry">
            <mxPoint x="-440" y="1020" as="sourcePoint" />
            <mxPoint x="-390" y="970" as="targetPoint" />
          </mxGeometry>
        </mxCell>
        <mxCell id="lY8gxCx2SG573fm_s0-x-495" value="" style="endArrow=none;html=1;rounded=0;entryX=1;entryY=0.164;entryDx=0;entryDy=0;entryPerimeter=0;" parent="1" edge="1">
          <mxGeometry width="50" height="50" relative="1" as="geometry">
            <mxPoint x="-440" y="1050" as="sourcePoint" />
            <mxPoint x="-60" y="1051.2" as="targetPoint" />
          </mxGeometry>
        </mxCell>
        <mxCell id="lY8gxCx2SG573fm_s0-x-496" value="" style="ellipse;whiteSpace=wrap;html=1;aspect=fixed;fillColor=#FF0000;" parent="1" vertex="1">
          <mxGeometry x="-420" y="1635" width="50" height="50" as="geometry" />
        </mxCell>
        <mxCell id="lY8gxCx2SG573fm_s0-x-497" value="" style="ellipse;whiteSpace=wrap;html=1;aspect=fixed;fillColor=#FF8000;" parent="1" vertex="1">
          <mxGeometry x="-361" y="1635" width="50" height="50" as="geometry" />
        </mxCell>
        <mxCell id="lY8gxCx2SG573fm_s0-x-498" value="" style="ellipse;whiteSpace=wrap;html=1;aspect=fixed;fillColor=#FFFF00;" parent="1" vertex="1">
          <mxGeometry x="-302" y="1635" width="50" height="50" as="geometry" />
        </mxCell>
        <mxCell id="lY8gxCx2SG573fm_s0-x-499" value="" style="ellipse;whiteSpace=wrap;html=1;aspect=fixed;fillColor=#0000FF;" parent="1" vertex="1">
          <mxGeometry x="-184" y="1635" width="50" height="50" as="geometry" />
        </mxCell>
        <mxCell id="lY8gxCx2SG573fm_s0-x-500" value="" style="ellipse;whiteSpace=wrap;html=1;aspect=fixed;fillColor=#7F00FF;" parent="1" vertex="1">
          <mxGeometry x="-125" y="1635" width="50" height="50" as="geometry" />
        </mxCell>
        <mxCell id="lY8gxCx2SG573fm_s0-x-501" value="" style="ellipse;whiteSpace=wrap;html=1;aspect=fixed;fillColor=#80FF00;" parent="1" vertex="1">
          <mxGeometry x="-243" y="1635" width="50" height="50" as="geometry" />
        </mxCell>
        <mxCell id="lY8gxCx2SG573fm_s0-x-502" value="" style="rounded=1;whiteSpace=wrap;html=1;fillColor=#CC0000;" parent="1" vertex="1">
          <mxGeometry x="-200" y="980" width="120" height="20" as="geometry" />
        </mxCell>
        <mxCell id="lY8gxCx2SG573fm_s0-x-503" value="" style="rounded=1;whiteSpace=wrap;html=1;fillColor=#CC0000;" parent="1" vertex="1">
          <mxGeometry x="-200" y="1000" width="120" height="20" as="geometry" />
        </mxCell>
        <mxCell id="lY8gxCx2SG573fm_s0-x-504" value="" style="rounded=1;whiteSpace=wrap;html=1;fillColor=#CC0000;" parent="1" vertex="1">
          <mxGeometry x="-200" y="1020" width="120" height="20" as="geometry" />
        </mxCell>
        <mxCell id="lY8gxCx2SG573fm_s0-x-505" value="&lt;font style=&quot;font-size: 19px;&quot;&gt;&lt;b&gt;00:00&lt;/b&gt;&lt;/font&gt;" style="rounded=0;whiteSpace=wrap;html=1;fillColor=#FFFFCC;" parent="1" vertex="1">
          <mxGeometry x="-180" y="990" width="80" height="40" as="geometry" />
        </mxCell>
        <mxCell id="lY8gxCx2SG573fm_s0-x-506" value="" style="rounded=0;whiteSpace=wrap;html=1;fillColor=#693400;" parent="1" vertex="1">
          <mxGeometry x="-420" y="990" width="188.5" height="40" as="geometry" />
        </mxCell>
        <mxCell id="lY8gxCx2SG573fm_s0-x-507" value="" style="ellipse;whiteSpace=wrap;html=1;aspect=fixed;" parent="1" vertex="1">
          <mxGeometry x="-410" y="995" width="30" height="30" as="geometry" />
        </mxCell>
        <mxCell id="lY8gxCx2SG573fm_s0-x-508" value="" style="ellipse;whiteSpace=wrap;html=1;aspect=fixed;" parent="1" vertex="1">
          <mxGeometry x="-367" y="995" width="30" height="30" as="geometry" />
        </mxCell>
        <mxCell id="lY8gxCx2SG573fm_s0-x-509" value="" style="ellipse;whiteSpace=wrap;html=1;aspect=fixed;" parent="1" vertex="1">
          <mxGeometry x="-325" y="995" width="30" height="30" as="geometry" />
        </mxCell>
        <mxCell id="lY8gxCx2SG573fm_s0-x-510" value="" style="ellipse;whiteSpace=wrap;html=1;aspect=fixed;" parent="1" vertex="1">
          <mxGeometry x="-282" y="995" width="30" height="30" as="geometry" />
        </mxCell>
        <mxCell id="lY8gxCx2SG573fm_s0-x-511" value="" style="group" parent="1" vertex="1" connectable="0">
          <mxGeometry x="-130" y="1270" width="60" height="60" as="geometry" />
        </mxCell>
        <mxCell id="lY8gxCx2SG573fm_s0-x-512" value="" style="whiteSpace=wrap;html=1;aspect=fixed;fillColor=#693400;" parent="lY8gxCx2SG573fm_s0-x-511" vertex="1">
          <mxGeometry width="60" height="60" as="geometry" />
        </mxCell>
        <mxCell id="lY8gxCx2SG573fm_s0-x-513" value="" style="ellipse;whiteSpace=wrap;html=1;aspect=fixed;" parent="lY8gxCx2SG573fm_s0-x-511" vertex="1">
          <mxGeometry x="10" y="10" width="10" height="10" as="geometry" />
        </mxCell>
        <mxCell id="lY8gxCx2SG573fm_s0-x-514" value="" style="ellipse;whiteSpace=wrap;html=1;aspect=fixed;" parent="lY8gxCx2SG573fm_s0-x-511" vertex="1">
          <mxGeometry x="40" y="40" width="10" height="10" as="geometry" />
        </mxCell>
        <mxCell id="lY8gxCx2SG573fm_s0-x-515" value="" style="ellipse;whiteSpace=wrap;html=1;aspect=fixed;" parent="lY8gxCx2SG573fm_s0-x-511" vertex="1">
          <mxGeometry x="10" y="40" width="10" height="10" as="geometry" />
        </mxCell>
        <mxCell id="lY8gxCx2SG573fm_s0-x-516" value="" style="ellipse;whiteSpace=wrap;html=1;aspect=fixed;" parent="lY8gxCx2SG573fm_s0-x-511" vertex="1">
          <mxGeometry x="40" y="10" width="10" height="10" as="geometry" />
        </mxCell>
        <mxCell id="lY8gxCx2SG573fm_s0-x-517" value="" style="group" parent="1" vertex="1" connectable="0">
          <mxGeometry x="-130" y="1340" width="60" height="60" as="geometry" />
        </mxCell>
        <mxCell id="lY8gxCx2SG573fm_s0-x-518" value="" style="whiteSpace=wrap;html=1;aspect=fixed;fillColor=#693400;" parent="lY8gxCx2SG573fm_s0-x-517" vertex="1">
          <mxGeometry width="60" height="60" as="geometry" />
        </mxCell>
        <mxCell id="lY8gxCx2SG573fm_s0-x-519" value="" style="ellipse;whiteSpace=wrap;html=1;aspect=fixed;" parent="lY8gxCx2SG573fm_s0-x-517" vertex="1">
          <mxGeometry x="10" y="10" width="10" height="10" as="geometry" />
        </mxCell>
        <mxCell id="lY8gxCx2SG573fm_s0-x-520" value="" style="ellipse;whiteSpace=wrap;html=1;aspect=fixed;" parent="lY8gxCx2SG573fm_s0-x-517" vertex="1">
          <mxGeometry x="40" y="40" width="10" height="10" as="geometry" />
        </mxCell>
        <mxCell id="lY8gxCx2SG573fm_s0-x-521" value="" style="ellipse;whiteSpace=wrap;html=1;aspect=fixed;" parent="lY8gxCx2SG573fm_s0-x-517" vertex="1">
          <mxGeometry x="10" y="40" width="10" height="10" as="geometry" />
        </mxCell>
        <mxCell id="lY8gxCx2SG573fm_s0-x-522" value="" style="ellipse;whiteSpace=wrap;html=1;aspect=fixed;" parent="lY8gxCx2SG573fm_s0-x-517" vertex="1">
          <mxGeometry x="40" y="10" width="10" height="10" as="geometry" />
        </mxCell>
        <mxCell id="lY8gxCx2SG573fm_s0-x-523" value="" style="group" parent="1" vertex="1" connectable="0">
          <mxGeometry x="-130" y="1410" width="60" height="60" as="geometry" />
        </mxCell>
        <mxCell id="lY8gxCx2SG573fm_s0-x-524" value="" style="whiteSpace=wrap;html=1;aspect=fixed;fillColor=#693400;" parent="lY8gxCx2SG573fm_s0-x-523" vertex="1">
          <mxGeometry width="60" height="60" as="geometry" />
        </mxCell>
        <mxCell id="lY8gxCx2SG573fm_s0-x-525" value="" style="ellipse;whiteSpace=wrap;html=1;aspect=fixed;" parent="lY8gxCx2SG573fm_s0-x-523" vertex="1">
          <mxGeometry x="10" y="10" width="10" height="10" as="geometry" />
        </mxCell>
        <mxCell id="lY8gxCx2SG573fm_s0-x-526" value="" style="ellipse;whiteSpace=wrap;html=1;aspect=fixed;" parent="lY8gxCx2SG573fm_s0-x-523" vertex="1">
          <mxGeometry x="40" y="40" width="10" height="10" as="geometry" />
        </mxCell>
        <mxCell id="lY8gxCx2SG573fm_s0-x-527" value="" style="ellipse;whiteSpace=wrap;html=1;aspect=fixed;" parent="lY8gxCx2SG573fm_s0-x-523" vertex="1">
          <mxGeometry x="10" y="40" width="10" height="10" as="geometry" />
        </mxCell>
        <mxCell id="lY8gxCx2SG573fm_s0-x-528" value="" style="ellipse;whiteSpace=wrap;html=1;aspect=fixed;" parent="lY8gxCx2SG573fm_s0-x-523" vertex="1">
          <mxGeometry x="40" y="10" width="10" height="10" as="geometry" />
        </mxCell>
        <mxCell id="lY8gxCx2SG573fm_s0-x-529" value="" style="group" parent="1" vertex="1" connectable="0">
          <mxGeometry x="-130" y="1480" width="60" height="60" as="geometry" />
        </mxCell>
        <mxCell id="lY8gxCx2SG573fm_s0-x-530" value="" style="whiteSpace=wrap;html=1;aspect=fixed;fillColor=#693400;" parent="lY8gxCx2SG573fm_s0-x-529" vertex="1">
          <mxGeometry width="60" height="60" as="geometry" />
        </mxCell>
        <mxCell id="lY8gxCx2SG573fm_s0-x-531" value="" style="ellipse;whiteSpace=wrap;html=1;aspect=fixed;" parent="lY8gxCx2SG573fm_s0-x-529" vertex="1">
          <mxGeometry x="10" y="10" width="10" height="10" as="geometry" />
        </mxCell>
        <mxCell id="lY8gxCx2SG573fm_s0-x-532" value="" style="ellipse;whiteSpace=wrap;html=1;aspect=fixed;" parent="lY8gxCx2SG573fm_s0-x-529" vertex="1">
          <mxGeometry x="40" y="40" width="10" height="10" as="geometry" />
        </mxCell>
        <mxCell id="lY8gxCx2SG573fm_s0-x-533" value="" style="ellipse;whiteSpace=wrap;html=1;aspect=fixed;" parent="lY8gxCx2SG573fm_s0-x-529" vertex="1">
          <mxGeometry x="10" y="40" width="10" height="10" as="geometry" />
        </mxCell>
        <mxCell id="lY8gxCx2SG573fm_s0-x-534" value="" style="ellipse;whiteSpace=wrap;html=1;aspect=fixed;" parent="lY8gxCx2SG573fm_s0-x-529" vertex="1">
          <mxGeometry x="40" y="10" width="10" height="10" as="geometry" />
        </mxCell>
        <mxCell id="lY8gxCx2SG573fm_s0-x-535" value="" style="group" parent="1" vertex="1" connectable="0">
          <mxGeometry x="-130" y="1550" width="60" height="60" as="geometry" />
        </mxCell>
        <mxCell id="lY8gxCx2SG573fm_s0-x-536" value="" style="whiteSpace=wrap;html=1;aspect=fixed;fillColor=#693400;" parent="lY8gxCx2SG573fm_s0-x-535" vertex="1">
          <mxGeometry width="60" height="60" as="geometry" />
        </mxCell>
        <mxCell id="lY8gxCx2SG573fm_s0-x-537" value="" style="ellipse;whiteSpace=wrap;html=1;aspect=fixed;" parent="lY8gxCx2SG573fm_s0-x-535" vertex="1">
          <mxGeometry x="10" y="10" width="10" height="10" as="geometry" />
        </mxCell>
        <mxCell id="lY8gxCx2SG573fm_s0-x-538" value="" style="ellipse;whiteSpace=wrap;html=1;aspect=fixed;" parent="lY8gxCx2SG573fm_s0-x-535" vertex="1">
          <mxGeometry x="40" y="40" width="10" height="10" as="geometry" />
        </mxCell>
        <mxCell id="lY8gxCx2SG573fm_s0-x-539" value="" style="ellipse;whiteSpace=wrap;html=1;aspect=fixed;" parent="lY8gxCx2SG573fm_s0-x-535" vertex="1">
          <mxGeometry x="10" y="40" width="10" height="10" as="geometry" />
        </mxCell>
        <mxCell id="lY8gxCx2SG573fm_s0-x-540" value="" style="ellipse;whiteSpace=wrap;html=1;aspect=fixed;" parent="lY8gxCx2SG573fm_s0-x-535" vertex="1">
          <mxGeometry x="40" y="10" width="10" height="10" as="geometry" />
        </mxCell>
        <mxCell id="lY8gxCx2SG573fm_s0-x-541" value="" style="group;fillColor=#693400;" parent="1" vertex="1" connectable="0">
          <mxGeometry x="-130" y="1060" width="60" height="60" as="geometry" />
        </mxCell>
        <mxCell id="lY8gxCx2SG573fm_s0-x-542" value="" style="whiteSpace=wrap;html=1;aspect=fixed;fillColor=#693400;" parent="lY8gxCx2SG573fm_s0-x-541" vertex="1">
          <mxGeometry width="60" height="60" as="geometry" />
        </mxCell>
        <mxCell id="lY8gxCx2SG573fm_s0-x-543" value="" style="ellipse;whiteSpace=wrap;html=1;aspect=fixed;" parent="lY8gxCx2SG573fm_s0-x-541" vertex="1">
          <mxGeometry x="10" y="10" width="10" height="10" as="geometry" />
        </mxCell>
        <mxCell id="lY8gxCx2SG573fm_s0-x-544" value="" style="ellipse;whiteSpace=wrap;html=1;aspect=fixed;" parent="lY8gxCx2SG573fm_s0-x-541" vertex="1">
          <mxGeometry x="40" y="40" width="10" height="10" as="geometry" />
        </mxCell>
        <mxCell id="lY8gxCx2SG573fm_s0-x-545" value="" style="ellipse;whiteSpace=wrap;html=1;aspect=fixed;" parent="lY8gxCx2SG573fm_s0-x-541" vertex="1">
          <mxGeometry x="10" y="40" width="10" height="10" as="geometry" />
        </mxCell>
        <mxCell id="lY8gxCx2SG573fm_s0-x-546" value="" style="ellipse;whiteSpace=wrap;html=1;aspect=fixed;" parent="lY8gxCx2SG573fm_s0-x-541" vertex="1">
          <mxGeometry x="40" y="10" width="10" height="10" as="geometry" />
        </mxCell>
        <mxCell id="lY8gxCx2SG573fm_s0-x-547" value="" style="group" parent="1" vertex="1" connectable="0">
          <mxGeometry x="-130" y="1130" width="60" height="60" as="geometry" />
        </mxCell>
        <mxCell id="lY8gxCx2SG573fm_s0-x-548" value="" style="whiteSpace=wrap;html=1;aspect=fixed;fillColor=#693400;" parent="lY8gxCx2SG573fm_s0-x-547" vertex="1">
          <mxGeometry width="60" height="60" as="geometry" />
        </mxCell>
        <mxCell id="lY8gxCx2SG573fm_s0-x-549" value="" style="ellipse;whiteSpace=wrap;html=1;aspect=fixed;" parent="lY8gxCx2SG573fm_s0-x-547" vertex="1">
          <mxGeometry x="10" y="10" width="10" height="10" as="geometry" />
        </mxCell>
        <mxCell id="lY8gxCx2SG573fm_s0-x-550" value="" style="ellipse;whiteSpace=wrap;html=1;aspect=fixed;" parent="lY8gxCx2SG573fm_s0-x-547" vertex="1">
          <mxGeometry x="40" y="40" width="10" height="10" as="geometry" />
        </mxCell>
        <mxCell id="lY8gxCx2SG573fm_s0-x-551" value="" style="ellipse;whiteSpace=wrap;html=1;aspect=fixed;" parent="lY8gxCx2SG573fm_s0-x-547" vertex="1">
          <mxGeometry x="10" y="40" width="10" height="10" as="geometry" />
        </mxCell>
        <mxCell id="lY8gxCx2SG573fm_s0-x-552" value="" style="ellipse;whiteSpace=wrap;html=1;aspect=fixed;" parent="lY8gxCx2SG573fm_s0-x-547" vertex="1">
          <mxGeometry x="40" y="10" width="10" height="10" as="geometry" />
        </mxCell>
        <mxCell id="lY8gxCx2SG573fm_s0-x-553" value="" style="group" parent="1" vertex="1" connectable="0">
          <mxGeometry x="-130" y="1200" width="60" height="60" as="geometry" />
        </mxCell>
        <mxCell id="lY8gxCx2SG573fm_s0-x-554" value="" style="whiteSpace=wrap;html=1;aspect=fixed;fillColor=#693400;" parent="lY8gxCx2SG573fm_s0-x-553" vertex="1">
          <mxGeometry width="60" height="60" as="geometry" />
        </mxCell>
        <mxCell id="lY8gxCx2SG573fm_s0-x-555" value="" style="ellipse;whiteSpace=wrap;html=1;aspect=fixed;" parent="lY8gxCx2SG573fm_s0-x-553" vertex="1">
          <mxGeometry x="10" y="10" width="10" height="10" as="geometry" />
        </mxCell>
        <mxCell id="lY8gxCx2SG573fm_s0-x-556" value="" style="ellipse;whiteSpace=wrap;html=1;aspect=fixed;" parent="lY8gxCx2SG573fm_s0-x-553" vertex="1">
          <mxGeometry x="40" y="40" width="10" height="10" as="geometry" />
        </mxCell>
        <mxCell id="lY8gxCx2SG573fm_s0-x-557" value="" style="ellipse;whiteSpace=wrap;html=1;aspect=fixed;" parent="lY8gxCx2SG573fm_s0-x-553" vertex="1">
          <mxGeometry x="10" y="40" width="10" height="10" as="geometry" />
        </mxCell>
        <mxCell id="lY8gxCx2SG573fm_s0-x-558" value="" style="ellipse;whiteSpace=wrap;html=1;aspect=fixed;" parent="lY8gxCx2SG573fm_s0-x-553" vertex="1">
          <mxGeometry x="40" y="10" width="10" height="10" as="geometry" />
        </mxCell>
        <mxCell id="ii8LrnSApD7TjYcVhYzy-1" value="" style="ellipse;whiteSpace=wrap;html=1;aspect=fixed;fillColor=#0000FF;" parent="1" vertex="1">
          <mxGeometry x="350" y="1990" width="50" height="50" as="geometry" />
        </mxCell>
        <mxCell id="ii8LrnSApD7TjYcVhYzy-2" value="" style="ellipse;whiteSpace=wrap;html=1;aspect=fixed;fillColor=#7F00FF;" parent="1" vertex="1">
          <mxGeometry x="430" y="1990" width="50" height="50" as="geometry" />
        </mxCell>
        <mxCell id="ii8LrnSApD7TjYcVhYzy-3" value="" style="ellipse;whiteSpace=wrap;html=1;aspect=fixed;fillColor=#80FF00;" parent="1" vertex="1">
          <mxGeometry x="270" y="1990" width="50" height="50" as="geometry" />
        </mxCell>
        <mxCell id="ii8LrnSApD7TjYcVhYzy-4" value="" style="ellipse;whiteSpace=wrap;html=1;aspect=fixed;fillColor=#FFFF00;" parent="1" vertex="1">
          <mxGeometry x="190" y="1990" width="50" height="50" as="geometry" />
        </mxCell>
        <mxCell id="ii8LrnSApD7TjYcVhYzy-5" value="" style="ellipse;whiteSpace=wrap;html=1;aspect=fixed;fillColor=#FF8000;" parent="1" vertex="1">
          <mxGeometry x="100" y="1979.5" width="50" height="50" as="geometry" />
        </mxCell>
        <mxCell id="ii8LrnSApD7TjYcVhYzy-6" value="" style="ellipse;whiteSpace=wrap;html=1;aspect=fixed;fillColor=#ff006f;strokeColor=#000000;" parent="1" vertex="1">
          <mxGeometry x="130" y="1530" width="60.5" height="60.5" as="geometry" />
        </mxCell>
      </root>
    </mxGraphModel>
  </diagram>
</mxfile>
